<svg xmlns="http://www.w3.org/2000/svg" width="69.472" height="31.071" viewBox="0 0 69.472 31.071"><defs><style>.a{fill:#00ffda;}.b{fill:#fff;}</style></defs><g transform="translate(-0.6)"><path class="a" d="M90.5,7.9c0,6.5,3.768,12.749,5.213,14.968a1.888,1.888,0,0,0,1.548.826h9.548a1.82,1.82,0,0,0,1.548-.826C109.8,20.7,113.571,14.4,113.571,7.9Z" transform="translate(-43.5 -3.823)"/><g transform="translate(2.303 24.052)"><path class="a" d="M7,52.536a1.828,1.828,0,0,1-1.548-.671,2.694,2.694,0,0,1-.516-1.806,3.61,3.61,0,0,1,.465-1.91,1.737,1.737,0,0,1,1.548-.723,4.042,4.042,0,0,1,1.342.31l.258-.826a4.4,4.4,0,0,0-1.6-.31,2.811,2.811,0,0,0-2.271.929A3.842,3.842,0,0,0,3.9,50.006a3.891,3.891,0,0,0,.774,2.426,2.946,2.946,0,0,0,2.219.929h.052A3.67,3.67,0,0,0,8.6,53l-.206-.877A2.219,2.219,0,0,1,7,52.536ZM13.5,46.6a2.5,2.5,0,0,0-2.116.929,4.351,4.351,0,0,0,0,4.955,2.425,2.425,0,0,0,2.116.929,2.5,2.5,0,0,0,2.116-.929,4.351,4.351,0,0,0,0-4.955A2.719,2.719,0,0,0,13.5,46.6Zm1.342,5.265a1.544,1.544,0,0,1-1.394.671,1.737,1.737,0,0,1-1.394-.671,3.236,3.236,0,0,1-.413-1.806h0a3.013,3.013,0,0,1,.465-1.806,1.544,1.544,0,0,1,1.394-.671,1.737,1.737,0,0,1,1.394.671,3.238,3.238,0,0,1,.465,1.806A3.379,3.379,0,0,1,14.842,51.865Zm7.019-1.5a1.8,1.8,0,0,0,1.032-.516,1.574,1.574,0,0,0,.413-1.239,1.539,1.539,0,0,0-.671-1.394,3.257,3.257,0,0,0-1.91-.465h-1.7V53.31H20V50.677h.568a.927.927,0,0,1,.568.155,1.405,1.405,0,0,1,.413.516l1.032,1.91h1.084l-1.032-2.013A1.66,1.66,0,0,0,21.861,50.368Zm-1.135-.516H20V47.581h.723a1.935,1.935,0,0,1,1.187.258.919.919,0,0,1,.413.877,1.032,1.032,0,0,1-.413.877A1.935,1.935,0,0,1,20.726,49.852Zm9.239-2.529A3.165,3.165,0,0,0,28,46.755H26.249V53.31h.981V51.09H28a2.957,2.957,0,0,0,1.961-.568,2,2,0,0,0,.723-1.652A1.865,1.865,0,0,0,29.965,47.323ZM29.242,49.9a2.089,2.089,0,0,1-1.239.31h-.774V47.529H28a2.2,2.2,0,0,1,1.239.31,1.14,1.14,0,0,1,.413,1.032C29.655,49.387,29.552,49.748,29.242,49.9Z" transform="translate(-3.9 -46.6)"/></g><g transform="translate(0.6)"><g transform="translate(38.917 4.077)"><path class="b" d="M92.055,39.255,91.9,39.1Z" transform="translate(-83.693 -22.997)"/><path class="b" d="M76,13.1h2.219a39.351,39.351,0,0,0,1.342,5.007A32.22,32.22,0,0,1,78.219,13.1Z" transform="translate(-76 -10.416)"/><path class="b" d="M87.3,46.839h0A30.236,30.236,0,0,0,88.848,44,16.958,16.958,0,0,1,87.3,46.839Z" transform="translate(-81.468 -25.368)"/><path class="b" d="M91.726,39.8c-.31.568-.568,1.135-.826,1.7.258-.619.568-1.187.826-1.7Z" transform="translate(-83.21 -23.335)"/><path class="b" d="M91.794,12.6c.671-2.839.929-4.7.929-4.7h-3.3a56.056,56.056,0,0,1-1.032,5.523c-.052.155-.052.31-.1.413-.465,1.755-1.032,3.613-1.7,5.471-.258.671-.465,1.29-.774,2.013h0l-.1-.1-.052-.052a37,37,0,0,1-2.271-4.439.19.19,0,0,1-.052-.155,5.937,5.937,0,0,1-.31-.877A32.556,32.556,0,0,1,81.265,8V7.952H76v2.632h2.219a39.351,39.351,0,0,0,1.342,5.007,30.487,30.487,0,0,0,4.336,8.1.876.876,0,0,0,.31.31l.155.155.155.155h0c-.31.568-.568,1.135-.826,1.7a1.375,1.375,0,0,1-.31.516c-.465.929-.981,1.91-1.548,2.839h2.942c.671-.981,1.29-2.065,1.858-3.1a38.629,38.629,0,0,0,1.755-3.613q1.006-2.323,1.7-4.49a5.938,5.938,0,0,1,.31-.877,2.28,2.28,0,0,1,.31-.826c.258-.826.465-1.652.671-2.374.1-.465.258-.929.361-1.342C91.794,12.648,91.794,12.648,91.794,12.6Z" transform="translate(-76 -7.9)"/><circle class="b" cx="2.013" cy="2.013" r="2.013" transform="translate(4.232 22.968)"/><circle class="b" cx="2.013" cy="2.013" r="2.013" transform="translate(22.4 22.968)"/></g><path class="b" d="M8.342,20.955c-3.406,0-5.368-1.755-5.368-5.781V6.658H.6V3.974H2.974V.155L6.329,0V3.974h4.129V6.658H6.329v8.465c0,2.168.929,3.045,2.581,3.045a5.523,5.523,0,0,0,1.91-.258l.206,2.684A10.549,10.549,0,0,1,8.342,20.955Z" transform="translate(-0.6)"/><path class="b" d="M34.116,7a7.946,7.946,0,0,1,2.374.258l-.465,2.787a5.817,5.817,0,0,0-1.652-.258,8.392,8.392,0,0,0-3.819.826V23.929H27.2V8.548A15.715,15.715,0,0,1,34.116,7Z" transform="translate(-13.471 -3.387)"/><path class="b" d="M54.2,24.342c-4.336,0-6.5-2.065-6.5-4.955,0-3.406,2.736-5.058,6.5-5.058a14.814,14.814,0,0,1,3.458.361V13.3c0-2.271-1.29-3.51-3.819-3.51a12.066,12.066,0,0,0-4.387.826l-.671-2.632A14.872,14.872,0,0,1,54.152,7c4.542,0,6.761,2.374,6.761,6.452v9.394A13.68,13.68,0,0,1,54.2,24.342Zm3.458-3.148V16.91a11.527,11.527,0,0,0-3.1-.413C52.5,16.5,51,17.219,51,19.232c0,1.755,1.29,2.632,3.458,2.632A6.417,6.417,0,0,0,57.661,21.194Z" transform="translate(-23.39 -3.387)"/></g></g></svg>